<svg width="8" height="8" viewBox="0 0 8 8" fill="none" xmlns="http://www.w3.org/2000/svg">
<path id="Vector" fill-rule="evenodd" clip-rule="evenodd" d="M4 0C1.79066 0 0 1.83598 0 4.10125C0 5.91297 1.14578 7.45043 2.73551 7.9932C2.93563 8.03021 3.00782 7.90398 3.00782 7.79542C3.00782 7.69797 3.00461 7.43974 3.00341 7.09803C1.89052 7.34557 1.6555 6.54786 1.6555 6.54786C1.47423 6.07416 1.21155 5.94792 1.21155 5.94792C0.848606 5.6934 1.23922 5.69915 1.23922 5.69915C1.64107 5.72794 1.85161 6.12186 1.85161 6.12186C2.20854 6.74852 2.78845 6.56759 3.01544 6.46274C3.05193 6.19752 3.15621 6.01659 3.2701 5.91421C2.38219 5.811 1.44857 5.45901 1.44857 3.88702C1.44857 3.44005 1.60457 3.07327 1.85923 2.78707C1.81873 2.68304 1.68037 2.26568 1.89894 1.70152C1.89894 1.70152 2.23461 1.59091 2.9986 2.12135C3.32488 2.03034 3.66146 1.98389 3.9996 1.98319C4.33775 1.98375 4.67434 2.03021 5.0006 2.12135C5.76499 1.5905 6.10026 1.70152 6.10026 1.70152C6.31883 2.26568 6.18167 2.68304 6.13996 2.78707C6.39663 3.07327 6.55063 3.43964 6.55063 3.88702C6.55063 5.46313 5.6162 5.80935 4.72508 5.91092C4.86746 6.03756 4.99579 6.28757 4.99579 6.66998C4.99579 7.21851 4.99098 7.66096 4.99098 7.79542C4.99098 7.90521 5.06236 8.03268 5.26649 7.99238C6.85542 7.44878 8 5.91256 8 4.10125C8 1.83598 6.20934 0 4 0Z" fill="#0090FF"/>
</svg>
